<?xml version="1.0" standalone="no"?>
<!DOCTYPE svg PUBLIC "-//W3C//DTD SVG 20010904//EN"
 "http://www.w3.org/TR/2001/REC-SVG-20010904/DTD/svg10.dtd">
<svg version="1.0" xmlns="http://www.w3.org/2000/svg"
 width="512.000000pt" height="512.000000pt" viewBox="0 0 512.000000 512.000000"
 preserveAspectRatio="xMidYMid meet">
<metadata>
Created by potrace 1.14, written by Peter Selinger 2001-2017
</metadata>
<g transform="translate(0.000000,512.000000) scale(0.100000,-0.100000)"
fill="#000000" stroke="none">
<path d="M2545 3419 c-131 -18 -195 -36 -294 -81 -185 -84 -312 -207 -399
-383 -63 -129 -91 -265 -86 -417 19 -516 359 -854 848 -842 433 12 776 315
833 737 7 52 7 279 0 307 -2 8 -7 33 -11 55 -27 141 -106 293 -206 395 -105
107 -216 173 -355 209 -83 21 -249 32 -330 20z m45 -849 c0 -635 -2 -750 -14
-750 -38 0 -144 41 -148 58 -2 9 -4 334 -3 722 l0 704 25 7 c14 4 51 7 83 8
l57 1 0 -750z m163 715 l37 -15 -2 -728 -3 -727 -75 0 -75 0 0 749 -1 748 41
-5 c22 -3 57 -13 78 -22z m-373 -696 l0 -700 -45 32 c-224 161 -349 524 -299
865 26 174 82 301 174 395 47 48 136 107 163 109 4 0 7 -315 7 -701z m501 636
c230 -146 353 -481 315 -860 -13 -136 -54 -260 -114 -348 -60 -86 -150 -158
-227 -181 -20 -6 -20 -2 -20 704 0 391 1 710 3 710 1 0 20 -11 43 -25z"/>
<path d="M840 3413 c-308 -40 -502 -129 -645 -295 -138 -161 -198 -346 -190
-593 8 -260 74 -434 220 -580 103 -103 218 -165 385 -206 105 -26 184 -33 345
-32 123 1 176 7 340 38 30 6 118 27 187 46 52 13 55 44 9 85 l-35 32 0 180 c2
235 11 257 116 276 37 7 48 21 48 59 l0 22 -334 2 c-365 1 -348 4 -338 -54 3
-17 12 -23 31 -24 31 -1 56 -4 134 -20 103 -21 116 -50 115 -254 0 -205 -21
-258 -111 -285 -41 -12 -208 -16 -257 -6 -100 21 -135 33 -208 68 -180 88
-305 261 -358 493 -21 95 -26 328 -8 427 17 94 54 205 91 267 36 63 137 160
200 194 82 44 185 66 309 65 228 0 372 -51 422 -150 23 -44 52 -161 52 -210 0
-26 3 -28 39 -28 43 0 55 11 57 50 2 43 15 187 19 211 2 13 6 47 10 74 3 28 9
60 12 73 4 16 1 22 -13 24 -11 0 -23 2 -29 3 -66 10 -110 17 -127 20 -11 3
-46 7 -77 11 -31 3 -59 8 -64 11 -9 5 -311 11 -347 6z"/>
<path d="M3599 3354 c0 -22 -2 -57 -5 -79 -6 -59 -24 -197 -28 -220 -2 -11 -7
-41 -10 -67 -7 -46 -6 -48 21 -54 15 -3 33 -7 39 -9 11 -3 22 19 69 140 14 39
39 88 53 110 46 67 68 73 273 73 122 0 181 -3 186 -11 7 -11 6 -782 -2 -1109
-7 -281 -14 -293 -195 -314 -30 -4 -62 -8 -70 -10 -8 -1 -18 -3 -22 -3 -5 -1
-8 -17 -8 -36 0 -26 4 -35 18 -35 9 -1 80 0 157 1 186 2 249 2 449 -1 98 -1
172 2 178 8 11 11 7 68 -4 66 -16 -3 -164 25 -190 35 -38 15 -56 48 -66 120
-12 82 -16 1281 -5 1282 4 1 97 2 207 3 136 1 207 -2 227 -11 51 -21 83 -98
95 -233 3 -30 10 -60 15 -66 8 -9 66 -10 75 -2 1 2 5 32 8 68 4 36 9 76 11 90
2 14 7 52 10 85 4 33 13 93 21 134 7 41 12 77 9 79 -2 3 -35 -3 -72 -13 -61
-16 -127 -18 -665 -20 -453 -1 -610 2 -655 12 -134 29 -123 31 -124 -13z"/>
</g>
</svg>
