<?xml version="1.0" standalone="no"?>
<!DOCTYPE svg PUBLIC "-//W3C//DTD SVG 20010904//EN"
 "http://www.w3.org/TR/2001/REC-SVG-20010904/DTD/svg10.dtd">
<svg version="1.0" xmlns="http://www.w3.org/2000/svg"
 width="592.000000pt" height="592.000000pt" viewBox="0 0 592.000000 592.000000"
 preserveAspectRatio="xMidYMid meet">
<metadata>
Created by potrace 1.14, written by Peter Selinger 2001-2017
</metadata>
<g transform="translate(0.000000,592.000000) scale(0.100000,-0.100000)"
fill="#000000" stroke="none">
<path d="M2705 5093 c-19 -46 -42 -172 -55 -311 -11 -120 -14 -1194 -4 -1657
7 -326 4 -355 -40 -355 -19 0 -27 8 -36 36 -17 49 -27 205 -29 434 -1 195 -3
235 -21 665 -22 502 -64 930 -97 999 -36 76 -65 28 -84 -140 -15 -132 -18
-898 -6 -1624 6 -348 6 -492 -2 -485 -13 13 -26 156 -46 510 -33 565 -80 909
-141 1028 -32 61 -39 11 -38 -263 1 -275 7 -383 59 -964 33 -382 34 -496 1
-346 -9 41 -39 237 -66 435 -82 580 -127 828 -206 1135 -49 188 -70 245 -110
298 -24 31 -27 32 -43 18 -11 -11 -18 -34 -20 -68 -1 -28 -4 -54 -6 -57 -6
-11 14 -311 36 -521 24 -238 60 -530 122 -1000 54 -399 61 -470 47 -470 -5 0
-10 2 -10 5 0 3 -18 83 -40 178 -22 95 -67 298 -100 452 -33 154 -81 352 -106
440 -53 184 -151 461 -192 544 -28 56 -57 76 -73 49 -42 -65 75 -652 276
-1388 103 -377 125 -461 125 -483 -2 -57 -204 512 -350 983 -138 445 -191 596
-274 779 -30 68 -52 129 -49 134 3 6 2 8 -3 4 -5 -3 -31 37 -58 89 -27 52 -61
107 -74 121 -24 26 -25 26 -39 7 -51 -66 94 -695 331 -1441 20 -62 52 -164 72
-225 83 -261 163 -527 169 -564 11 -66 -9 -24 -106 221 -360 913 -537 1310
-622 1399 -87 91 -93 52 -32 -209 1 -5 5 -17 8 -25 3 -8 25 -71 48 -140 52
-155 185 -489 336 -845 182 -427 264 -628 261 -637 -4 -11 -62 87 -203 342
-309 558 -710 1230 -797 1335 -9 11 -43 55 -77 97 -65 83 -100 112 -128 106
-14 -3 -17 -11 -14 -33 7 -62 77 -229 206 -490 130 -263 219 -426 486 -898 74
-129 127 -233 123 -240 -4 -7 -4 -9 1 -5 10 9 31 -24 97 -154 109 -215 32
-114 -322 421 -281 425 -442 621 -510 621 -50 0 -17 -88 105 -285 37 -60 73
-119 79 -130 37 -66 400 -582 464 -660 17 -21 200 -272 216 -297 10 -16 13
-29 7 -32 -12 -8 -113 123 -105 135 3 5 -1 9 -8 10 -7 0 -53 54 -103 120 -49
66 -95 125 -100 132 -106 124 -293 371 -288 379 3 6 1 8 -5 5 -5 -4 -22 8 -37
25 -14 18 -43 53 -63 77 -20 24 -41 51 -46 60 -5 9 -12 18 -16 21 -35 27 -189
214 -184 223 4 7 4 9 0 5 -5 -4 -37 17 -71 47 -80 67 -103 81 -118 66 -8 -8
-3 -27 18 -69 16 -31 29 -63 28 -70 0 -7 1 -11 4 -8 7 7 268 -386 267 -401 -1
-7 2 -11 6 -10 4 1 52 -59 105 -133 54 -74 124 -170 157 -213 32 -43 56 -83
52 -89 -4 -6 -3 -8 3 -5 6 4 49 -44 96 -106 47 -62 142 -183 211 -269 68 -86
121 -160 118 -165 -4 -4 -3 -5 2 -1 4 4 18 -5 30 -19 l23 -26 94 40 c52 22
104 43 117 47 16 6 22 15 22 37 0 16 -5 29 -12 29 -24 0 3 13 32 15 41 4 63
23 57 52 -3 15 0 22 7 20 6 -2 13 -17 14 -33 8 -65 18 -66 182 -1 98 38 138
46 162 31 22 -14 -31 -45 -158 -89 -73 -26 -134 -50 -134 -54 0 -13 32 -106
40 -114 7 -8 172 47 285 95 39 16 86 31 105 33 19 1 72 16 118 31 l83 29 -6
55 c-3 30 -11 83 -17 117 -9 57 -12 62 -33 61 -13 -1 -22 -5 -19 -9 2 -4 -3
-12 -10 -18 -11 -10 -22 -7 -50 11 -32 21 -50 58 -27 58 5 0 11 10 14 21 5 18
10 20 29 14 35 -12 158 -18 158 -8 0 17 -47 54 -61 48 -10 -4 -14 4 -15 30 0
19 3 35 8 35 4 0 8 -5 8 -12 0 -6 11 -1 25 12 21 20 33 71 15 68 -3 -1 -17 2
-31 6 -37 11 -34 54 6 89 l30 27 -38 33 -38 34 26 17 c46 31 29 50 -49 56 -52
4 -72 9 -80 23 -9 16 -4 25 39 62 27 24 54 41 59 38 5 -4 6 -1 2 5 -9 14 51
55 72 49 45 -14 149 -61 161 -72 21 -21 6 -43 -45 -67 -66 -32 -77 -53 -41
-82 32 -26 34 -42 7 -51 -25 -8 -26 -37 -2 -57 20 -17 232 -17 512 1 91 6 186
10 213 11 49 0 61 -13 31 -35 -15 -11 -15 -14 1 -38 l17 -27 -82 0 c-80 0 -82
1 -67 18 19 21 22 38 7 47 -5 3 -15 -5 -21 -19 -11 -24 -17 -25 -98 -28 l-86
-3 -3 -65 c-2 -36 -1 -93 3 -128 l7 -62 82 0 c48 0 87 5 93 11 6 6 43 14 82
17 62 4 71 3 71 -12 0 -15 10 -16 78 -14 l77 3 3 40 c1 22 9 86 17 143 22 152
24 146 -31 137 -36 -5 -50 -3 -65 11 -25 22 -24 59 1 84 25 25 45 25 78 -1 20
-15 38 -20 77 -18 28 1 57 -1 63 -5 6 -4 29 -6 50 -5 21 2 43 -1 50 -5 7 -4
37 -2 67 4 63 13 91 3 101 -36 9 -34 -22 -67 -56 -61 -62 13 -63 13 -70 -18
-10 -43 -33 -216 -28 -219 1 -2 42 -6 90 -9 85 -6 88 -5 92 16 2 12 11 76 20
142 23 180 46 299 65 332 7 13 9 13 14 -1 3 -8 2 -18 -3 -21 -17 -11 -11 -24
18 -39 15 -8 21 -15 14 -16 -7 0 -22 5 -33 10 -22 12 -27 -8 -7 -28 9 -9 8
-12 -5 -12 -20 0 -22 -13 -4 -28 13 -11 87 -33 120 -35 13 -1 17 -10 17 -39 0
-20 -4 -39 -10 -43 -5 -3 -7 -11 -4 -18 2 -7 -2 -46 -11 -87 -8 -41 -17 -84
-19 -95 -1 -11 -6 -34 -10 -51 -7 -30 -6 -30 51 -48 69 -22 150 -61 178 -86
24 -23 42 -28 45 -15 8 40 20 46 93 43 l72 -3 3 -32 3 -33 -75 0 c-121 0 -88
-17 47 -25 138 -7 274 -22 288 -30 5 -4 6 -12 2 -18 -4 -7 -8 -16 -8 -22 0 -5
-9 -9 -20 -8 -11 1 -68 5 -126 9 -102 6 -108 5 -118 -14 -14 -26 -5 -32 102
-61 94 -25 123 -26 136 -4 7 14 13 15 33 6 12 -7 17 -12 11 -12 -20 -1 -15
-21 5 -21 10 0 26 -6 37 -13 11 -8 65 -26 120 -42 55 -15 105 -30 111 -32 11
-4 112 122 218 272 21 30 42 52 46 50 4 -2 7 1 7 8 0 13 30 54 354 490 101
137 199 271 218 298 18 27 37 49 42 49 5 0 9 4 9 9 0 11 140 223 154 233 6 4
8 8 4 8 -4 0 13 34 37 76 40 67 56 114 40 114 -29 0 -172 -133 -300 -277 -20
-24 -42 -40 -48 -36 -6 4 -7 1 -2 -6 4 -8 -6 -27 -27 -49 -40 -43 -126 -149
-225 -279 -39 -51 -74 -89 -78 -85 -3 4 -5 2 -3 -4 4 -16 -164 -244 -176 -237
-5 3 -6 2 -3 -4 8 -13 -119 -172 -146 -182 -12 -5 -21 -12 -19 -17 2 -5 -1
-10 -7 -12 -6 -2 -11 1 -11 7 0 18 71 116 82 113 5 -1 8 4 6 11 -2 7 15 37 37
66 22 30 45 61 50 69 6 9 102 144 214 301 336 470 435 627 429 679 -7 65 -78
4 -260 -225 -66 -84 -125 -150 -131 -146 -6 3 -7 1 -3 -6 8 -13 -42 -78 -56
-73 -5 1 -7 -2 -4 -7 4 -5 -20 -45 -53 -88 -88 -118 -218 -304 -325 -467 -53
-80 -103 -146 -111 -146 -8 0 -15 3 -15 6 0 16 63 123 70 119 4 -3 7 3 6 13 0
9 5 16 12 14 8 -1 11 2 7 8 -4 6 18 52 48 103 30 51 76 131 102 179 27 48 53
84 58 81 6 -3 7 -1 3 5 -4 6 37 91 90 189 155 283 216 400 367 703 150 300
203 422 209 480 2 30 0 35 -19 38 -16 2 -39 -13 -78 -51 -30 -29 -57 -52 -60
-50 -3 2 -3 0 -1 -3 2 -3 -21 -41 -53 -85 -55 -77 -214 -328 -343 -541 -36
-59 -69 -104 -73 -100 -5 4 -5 1 -1 -6 4 -6 -1 -24 -12 -40 -19 -28 -98 -163
-164 -281 -20 -36 -42 -65 -47 -64 -6 2 -8 -3 -6 -10 7 -17 -79 -169 -90 -160
-4 5 -5 3 -2 -4 7 -12 -107 -233 -172 -333 -44 -68 -53 -47 -16 36 189 420
525 1245 589 1442 61 189 64 283 7 253 -12 -7 -34 -30 -50 -51 -16 -22 -31
-37 -34 -34 -3 3 -4 -1 -4 -8 1 -7 -20 -55 -46 -106 -82 -160 -201 -434 -394
-912 -166 -409 -184 -454 -215 -512 -17 -32 -34 -58 -38 -58 -15 0 23 131 210
730 247 789 370 1285 370 1485 0 70 -16 97 -43 71 -8 -8 -18 -12 -22 -8 -4 4
-5 3 -3 -3 1 -5 -16 -48 -39 -96 -96 -196 -332 -836 -452 -1229 -151 -493
-198 -627 -227 -651 -14 -12 -15 -8 -9 37 11 74 39 191 115 484 81 310 161
656 190 825 21 124 42 326 36 360 -6 41 -32 18 -72 -64 -81 -165 -172 -477
-343 -1177 -66 -270 -93 -354 -112 -354 -16 0 -10 51 35 337 111 696 151 1048
162 1438 9 282 -8 339 -68 230 -45 -82 -86 -234 -132 -497 -9 -46 -29 -159
-46 -253 -38 -210 -100 -591 -135 -830 -28 -193 -43 -264 -56 -279 -20 -22
-11 60 71 674 39 296 51 426 57 635 5 187 4 214 -11 244 -17 31 -18 32 -36 16
-47 -42 -85 -177 -125 -436 -26 -177 -67 -546 -85 -779 -13 -157 -25 -220 -42
-220 -7 0 -9 19 -5 58 23 224 31 530 31 1122 0 547 -2 676 -16 781 -43 329
-106 238 -157 -226 -36 -324 -61 -735 -81 -1315 -9 -271 -15 -324 -38 -367 -9
-15 -12 -16 -16 -3 -3 8 -7 380 -9 825 -4 802 -9 927 -43 1205 -21 167 -42
260 -60 260 -29 0 -76 -219 -108 -500 -32 -282 -38 -433 -45 -1050 -6 -571 -8
-639 -23 -673 -17 -38 -44 -47 -42 -14 1 9 -2 15 -6 12 -23 -14 -38 243 -50
871 -16 852 -40 1173 -101 1362 -11 34 -25 62 -30 62 -5 0 -16 -17 -24 -37z"/>
<path d="M2154 2179 c-11 -19 13 -34 31 -19 13 11 13 15 3 21 -18 12 -26 11
-34 -2z"/>
<path d="M2155 2110 c-10 -11 -16 -21 -14 -23 2 -1 12 -9 22 -16 15 -12 20
-11 37 4 19 17 19 19 4 37 -21 23 -27 23 -49 -2z"/>
<path d="M3094 2086 c-10 -26 4 -48 28 -44 17 2 23 10 23 28 0 18 -6 26 -23
28 -13 2 -25 -3 -28 -12z"/>
<path d="M3650 2072 c0 -11 131 -65 139 -57 9 10 -26 36 -60 45 -19 5 -44 12
-56 15 -14 4 -23 3 -23 -3z"/>
<path d="M3494 2045 c-8 -21 2 -45 19 -45 20 0 40 27 33 45 -7 19 -45 20 -52
0z"/>
<path d="M3650 2030 c0 -12 53 -40 78 -40 10 0 23 -5 30 -12 6 -6 15 -9 18 -5
13 12 -17 35 -66 51 -57 19 -60 19 -60 6z"/>
<path d="M2167 1992 c-24 -26 -21 -46 8 -62 22 -12 26 -11 44 11 19 24 19 24
-1 47 -26 27 -30 27 -51 4z"/>
<path d="M2904 1995 c-8 -20 4 -35 26 -35 23 0 32 13 24 34 -8 20 -43 21 -50
1z"/>
<path d="M3640 1987 c0 -16 41 -37 70 -37 11 0 20 -4 20 -10 0 -14 -15 -13
-55 4 -25 11 -36 12 -42 3 -3 -6 -1 -13 6 -15 9 -3 9 -7 0 -18 -9 -11 -9 -18
1 -29 10 -12 10 -15 -4 -15 -21 0 -20 -16 2 -29 16 -10 16 -10 0 -11 -21 0
-24 -26 -5 -33 7 -3 5 -6 -5 -6 -20 -1 -25 -31 -6 -31 6 0 3 -6 -8 -14 -18
-14 -18 -15 7 -24 39 -15 66 -18 68 -7 1 6 -8 13 -21 17 -19 6 -18 7 7 4 17
-2 39 -7 49 -11 15 -7 18 -5 13 8 -3 8 -1 17 5 19 8 3 7 10 -1 26 -8 14 -8 22
-1 22 21 0 9 21 -22 40 -23 14 -28 20 -15 20 10 0 27 -5 37 -10 20 -11 38 4
19 16 -8 5 -7 9 2 14 10 7 10 11 0 24 -11 13 -11 16 3 16 40 0 -1 44 -51 55
-18 3 -35 11 -38 16 -9 14 -35 11 -35 -4z"/>
<path d="M3308 1974 c-7 -11 -17 -85 -68 -554 -17 -151 -33 -289 -36 -306 -6
-34 7 -52 24 -31 9 11 31 205 78 668 15 154 16 245 2 223z"/>
<path d="M2323 1951 c-39 -6 -83 -42 -83 -69 0 -16 38 -43 57 -40 14 2 19 -4
21 -29 2 -25 0 -32 -11 -28 -15 6 -51 -28 -46 -43 5 -14 121 24 136 44 10 14
14 14 42 -7 36 -26 37 -31 14 -70 -15 -25 -21 -28 -50 -23 -27 5 -33 3 -33
-11 0 -10 9 -151 20 -314 11 -163 21 -321 22 -351 l3 -55 48 -1 c28 -1 47 3
48 10 1 15 1 40 -11 451 -11 393 -17 523 -26 536 -6 10 -84 10 -151 0z"/>
<path d="M2192 1837 c-27 -28 -27 -39 -4 -60 25 -23 37 -21 57 9 17 26 16 27
-7 51 l-24 24 -22 -24z"/>
<path d="M2396 1747 c-8 -33 36 -53 48 -21 8 20 1 30 -23 37 -14 3 -21 -1 -25
-16z"/>
<path d="M2015 1702 c-19 -14 -12 -38 12 -40 27 -2 43 25 22 39 -17 11 -21 11
-34 1z"/>
<path d="M3438 1663 c-14 -2 -29 -12 -33 -21 -12 -32 -82 -633 -77 -662 1 -7
64 -19 76 -14 6 2 26 98 44 212 18 114 42 264 54 335 11 70 17 134 14 142 -5
15 -23 16 -78 8z"/>
<path d="M2677 1623 c-4 -3 -4 -23 -1 -43 3 -20 9 -165 13 -321 l6 -284 58 1
c31 0 59 3 61 5 2 2 8 149 12 327 l7 322 -75 0 c-41 0 -78 -3 -81 -7z"/>
<path d="M3016 1618 c-3 -7 -7 -154 -10 -326 l-6 -313 52 3 53 3 8 160 c4 88
14 229 21 315 11 118 12 157 3 162 -20 13 -117 9 -121 -4z"/>
<path d="M2236 1612 c-3 -6 5 -106 19 -224 13 -117 30 -260 36 -318 7 -58 16
-113 21 -123 15 -29 29 -8 24 36 -58 460 -80 623 -86 630 -4 5 -11 4 -14 -1z"/>
<path d="M3783 1594 c-3 -8 -2 -19 3 -23 13 -12 134 -22 134 -12 0 9 -100 51
-121 51 -5 0 -12 -7 -16 -16z"/>
<path d="M3621 1563 c-5 -21 -19 -99 -31 -173 -12 -74 -28 -173 -36 -220 -16
-97 -18 -190 -5 -190 16 0 17 6 96 572 7 50 -12 58 -24 11z"/>
<path d="M2916 1488 c-11 -182 -12 -441 0 -445 7 -2 13 41 17 133 10 196 9
404 -2 404 -5 0 -12 -42 -15 -92z"/>
<path d="M3780 1507 c0 -2 -25 -128 -55 -281 -30 -153 -53 -281 -50 -285 2 -5
37 -11 77 -14 40 -3 102 -9 138 -13 63 -6 65 -6 67 17 0 13 13 125 28 249 15
124 28 243 29 265 l1 40 -90 12 c-93 12 -145 15 -145 10z"/>
<path d="M1403 1418 c-25 -8 -33 -17 -33 -34 0 -19 5 -24 25 -24 31 0 75 20
75 35 0 12 -20 36 -29 34 -4 -1 -21 -6 -38 -11z"/>
<path d="M2051 1339 c-35 -10 -66 -20 -68 -23 -6 -5 58 -266 84 -346 l18 -55
60 3 c33 2 63 7 68 11 4 4 -6 88 -23 187 -17 98 -33 194 -36 212 -6 37 -11 38
-103 11z"/>
<path d="M4176 1331 c-3 -14 -13 -89 -21 -166 -9 -77 -20 -169 -25 -205 -5
-36 -6 -68 -2 -72 14 -13 144 -26 148 -14 5 14 80 271 105 360 22 77 19 85
-36 86 -16 1 -60 9 -97 19 l-67 17 -5 -25z"/>
<path d="M1344 1290 c-5 -5 -45 -25 -87 -43 -43 -19 -78 -38 -77 -43 1 -13 96
-129 165 -202 33 -35 59 -70 59 -78 -1 -8 1 -12 5 -9 4 2 30 -19 57 -46 45
-47 91 -79 111 -79 4 0 14 4 22 9 11 7 0 35 -53 140 -37 72 -64 131 -61 131 4
0 -1 7 -10 16 -9 9 -36 55 -60 103 -56 109 -59 113 -71 101z"/>
<path d="M1900 1265 c0 -8 20 -92 45 -186 25 -94 45 -173 45 -175 0 -2 7 -4
15 -4 22 0 27 -24 -72 328 -13 49 -33 71 -33 37z"/>
<path d="M4516 1258 c-14 -22 -156 -403 -156 -419 0 -4 10 -11 22 -15 17 -5
33 6 89 66 37 40 66 73 65 75 0 2 38 52 86 113 48 60 90 116 93 124 4 10 -17
21 -77 42 -46 15 -88 30 -95 32 -6 3 -19 -5 -27 -18z"/>
<path d="M1687 1205 c-60 -23 -109 -44 -110 -46 -1 -2 21 -75 48 -162 45 -144
51 -158 70 -152 84 25 173 45 197 45 15 0 28 4 28 9 0 11 -87 296 -100 329 -5
12 -13 21 -17 21 -5 -1 -57 -20 -116 -44z"/>
</g>
</svg>
